{"title":"Boyz n the Hood 1991 DVDrip English Klam","uid":6489415,"size":1657635144,"categoryP":"video","categoryS":"movies","magnet":"?xt=urn:btih:6123a0bebb3394bcaba96185ac59abfe59bee3d5&amp;dn=Boyz+n+the+Hood+1991+DVDrip+English+Klam&amp;tr=udp%3A%2F%2Ftracker.openbittorrent.com%3A80&amp;tr=udp%3A%2F%2Fopen.demonii.com%3A1337&amp;tr=udp%3A%2F%2Ftracker.coppersurfer.tk%3A6969&amp;tr=udp%3A%2F%2Fexodus.desync.com%3A6969","seeders":1,"leechers":0,"uploader":"Klambake","files":-1,"time":1308824260,"description":"With: Ice Cube, Cuba Gooding Jr. and Morris Chestnut\n\nDrie vrienden, de halfbroers Doughboy en Ricky Baker, en Tre Styles, groeien op in de achterbuurten van Los Angeles. Tre wordt opgevoed door z'n vader, Furious Styles, die hem normen en waarden bijbrengt. Ricky staat op het punt om een football-beurs te krijgen op een universiteit, terwijl Doughboy zich vooral met geweld en alcohol bezig houdt.\n\nSaga of a group of childhood friends growing up in a Los Angeles ghetto. \n\n------------------ Dutch Friends ------------------\nYou can find my Friends at: http://www.Film-Test.nl \n------ They got my dutchs subs ---- and more ------\n\nGeneral:\n\nComplete name                    : Boyz n the Hood\\Boyz n the Hood.avi\nFormat                           : AVI\nFormat/Info                      : Audio Video Interleave\nFile size                        : 1.54 GiB\nDuration                         : 1h 47mn\nOverall bit rate                 : 2 054 Kbps\n\nVideo:\n\nFormat                           : MPEG-4 Visual\nFormat profile                   : Simple@L3\nFormat settings, BVOP            : No\nFormat settings, QPel            : No\nFormat settings, GMC             : No warppoints\nFormat settings, Matrix          : Default (H.263)\nCodec ID                         : XVID\nCodec ID/Hint                    : XviD\nDuration                         : 1h 47mn\nBit rate                         : 1 851 Kbps\nWidth                            : 652 pixels\nHeight                           : 352 pixels\nDisplay aspect ratio             : 1.852\nFrame rate                       : 25.000 fps\nColor space                      : YUV\nChroma subsampling               : 4:2:0\nBit depth                        : 8 bits\nScan type                        : Progressive\nBits/(Pixel*Frame)               : 0.323\nStream size                      : 1.39 GiB (90%)\nWriting library                  : XviD 1.1.2 (UTC 2006-11-01)\n\nAudio:\n\nFormat                           : AC-3\nFormat/Info                      : Audio Coding 3\nFormat profile                   : Dolby Digital\nMode extension                   : CM (complete main)\nCodec ID                         : 2000\nDuration                         : 1h 47mn\nBit rate mode                    : Constant\nBit rate                         : 192 Kbps\nChannel(s)                       : 2 channels\nChannel positions                : Front: L R\nSampling rate                    : 48.0 KHz\nBit depth                        : 16 bits\nStream size                      : 148 MiB (9%)\nAlignment                        : Aligned on interleaves\nInterleave, duration             : 32 ms (0.80 video frame)\nInterleave, preload duration     : 576 ms\n\n","torrent":{"xt":"urn:btih:6123a0bebb3394bcaba96185ac59abfe59bee3d5","amp;dn":"Boyz+n+the+Hood+1991+DVDrip+English+Klam","amp;tr":["udp%3A%2F%2Ftracker.openbittorrent.com%3A80","udp%3A%2F%2Fopen.demonii.com%3A1337","udp%3A%2F%2Ftracker.coppersurfer.tk%3A6969","udp%3A%2F%2Fexodus.desync.com%3A6969"],"infoHash":"6123a0bebb3394bcaba96185ac59abfe59bee3d5","infoHashBuffer":{"type":"Buffer","data":[97,35,160,190,187,51,148,188,171,169,97,133,172,89,171,254,89,190,227,213]},"announce":[],"urlList":[]}}